<?xml version="1.0" encoding="UTF-8"?>
<svg xmlns="http://www.w3.org/2000/svg" width="2528" height="972" viewBox="0 0 2528 972">
  <g fill="none" fill-rule="evenodd">
    <g fill="#DC1928" fill-rule="nonzero" transform="translate(48 66)">
      <path d="M0 414.97927C-.0491230015 587.377167 106.63707 741.841562 268 803L268 27C106.635879 88.1334507-.0556910188 242.589126 0 414.97927M415.01903.0829C403.596582.0829 392.21552.4974 381 1.3264L381 30.3414 383.11067 30.3414C540.790115 31.502 667.802771 151.99715 666.685358 299.47625 665.60933 446.29215 537.851732 564.4661 381.124157 564.3003L381.124157 827.6736C392.339677 828.62695 403.720739 829 415.143187 829 643.709993 829 829 643.422029 829 414.5 829 185.577971 643.709993 0 415.143187 0M1161.00625 326.281125L1058.80372 326.281125 1040.97291 379 996 379 1083.44381 126 1137.28462 126 1224 379 1178.71038 379 1161.00625 326.281125zM1148.1478 288.141375L1109.95249 175.90425 1071.94721 288.141375 1148.1478 288.141375zM1357.51553 194L1401 194 1401 378.356343 1357.51553 378.356343 1357.51553 357.001839 1356.09136 357.001839C1344.31827 373.017717 1328.27269 383 1303.68213 383 1266.24244 383 1242 355.927795 1242 314.640314L1242 194 1285.48447 194 1285.48447 310.028247C1285.48447 330.656193 1295.48527 345.598028 1319.37958 345.598028 1344.31827 345.598028 1357.51553 328.160622 1357.51553 307.185191L1357.51553 194zM1473.76912 324.863295C1476.61333 341.25677 1487.64251 351.257423 1510.77536 351.257423 1532.13849 351.257423 1544.24215 342.33279 1544.24215 327.015334 1544.24215 314.514519 1539.62822 307.045677 1519.6872 304.545514L1486.56804 300.621207C1448.83494 296.348777 1433.16023 278.467863 1433.16023 249.636868 1433.16023 214.318108 1463.05596 189 1509.35326 189 1557.79952 189 1581.27999 217.166395 1583.42895 244.984666L1540.7027 244.984666C1538.55374 230.015334 1527.87218 220.742577 1508.65801 220.742577 1488.71699 220.742577 1475.88647 230.015334 1475.88647 244.288418 1475.88647 256.02969 1482.20692 262.833931 1503.66486 265.302447L1536.43639 269.226754C1572.74738 273.530832 1587 290.272431 1587 320.938989 1587 359.106036 1553.91244 383 1510.45934 383 1460.24336 383 1433.53945 358.37814 1430 324.863295L1473.76912 324.863295zM1634.14327 226.50425L1599 226.50425 1599 194.4365 1634.39542 194.4365 1634.39542 126 1677.38682 126 1677.38682 194.4365 1719.62178 194.4365 1719.62178 226.50425 1677.38682 226.50425 1677.38682 321.37925C1677.38682 338.108875 1685.89685 344.876625 1702.2235 344.876625L1720 344.876625 1720 379 1694.7851 379C1653.81089 379 1634.04871 360.46775 1634.04871 324.130625L1634.14327 226.50425zM1801.27788 378L1758 378 1758 194 1801.27788 194 1801.27788 221.713502 1802.72572 221.713502C1811.57014 201.440713 1826.48921 194 1842.06924 194L1863 194 1863 232.370117 1843.86331 232.370117C1815.1268 232.370117 1801.30935 246.211103 1801.30935 279.946539L1801.27788 378zM1932.96885 383C1897.80828 383 1874 362.312571 1874 327.738627 1874 291.393282 1901.71851 277.475135 1931.89669 273.58438L1970.99903 268.586499C1985.91468 267.163052 1989.47804 260.393771 1989.47804 249.607207 1989.47804 233.79113 1979.16638 221.802544 1957.50242 221.802544 1935.83846 221.802544 1923.72935 233.917659 1921.96344 251.030654L1877.81563 251.030654C1878.88779 219.651557 1905.15574 189 1956.33565 189 2004.64597 189 2033.08977 217.468939 2033.08977 259.571335L2033.08977 346.717919C2033.18516 357.377129 2034.49712 367.990319 2037 378.350073L1992.18998 378.350073C1991.0005 370.445521 1990.41017 362.461883 1990.42407 354.467797L1989.35191 354.467797C1979.89166 370.505299 1959.61521 383 1932.96885 383zM1966.36351 293.544269L1947.19075 297.814609C1929.05862 301.736997 1917.70633 309.202185 1917.70633 325.967226 1917.70633 342.732268 1927.63958 351.27295 1946.84388 351.27295 1969.20159 351.27295 1989.82492 336.658895 1989.82492 312.428665L1989.82492 283.453612C1984.49565 288.894342 1975.98143 291.393282 1966.36351 293.544269L1966.36351 293.544269zM2071 329.061667L2071 113 2114.74215 113 2114.74215 326.37C2114.74215 337.77 2119.73671 344.895 2132.65257 344.895L2147 344.895 2147 379 2124.03139 379C2089.92842 379 2071 359.746667 2071 329.061667zM2223.99731 136.383133C2224.15 147.238532 2217.7913 157.111076 2207.90215 161.372524 2198.01301 165.633971 2186.5539 163.43951 2178.89684 155.817904 2171.23979 148.196298 2168.90277 136.65849 2172.98137 126.613399 2177.05997 116.568309 2186.74563 110.007323 2197.49773 110.006228 2204.50618 109.851969 2211.27799 112.568922 2216.27021 117.538034 2221.26243 122.507145 2224.04983 129.305148 2223.99731 136.383133L2223.99731 136.383133zM2219.04236 194.203337L2219.04236 379 2175.92174 379 2175.92174 194.203337 2219.04236 194.203337zM2308.96885 383C2273.77675 383 2250 362.312571 2250 327.738627 2250 291.393282 2277.68698 277.475135 2307.89669 273.58438L2346.9675 268.586499C2361.91468 267.163052 2365.44651 260.393771 2365.44651 249.607207 2365.44651 233.79113 2355.16638 221.802544 2333.47088 221.802544 2311.77539 221.802544 2299.72935 233.917659 2297.96344 251.030654L2253.81563 251.030654C2254.88779 219.651557 2281.18727 189 2332.33565 189 2380.6775 189 2409.08977 217.468939 2409.08977 259.571335L2409.08977 346.717919C2409.20072 357.376089 2410.51246 367.987517 2413 378.350073L2368.25305 378.350073C2367.07973 370.443708 2366.48949 362.461285 2366.48713 354.467797L2365.41497 354.467797C2355.86013 370.505299 2335.61521 383 2308.96885 383zM2342.36351 293.544269L2323.19075 297.814609C2305.05862 301.736997 2293.67479 309.202185 2293.67479 325.967226 2293.67479 342.732268 2303.63958 351.27295 2322.81234 351.27295 2345.20159 351.27295 2365.82492 336.658895 2365.82492 312.428665L2365.82492 283.453612C2360.49565 288.894342 2351.94989 291.393282 2342.36351 293.544269L2342.36351 293.544269zM1127.38651 455C1182.22984 455 1217 486.269375 1217 537.62 1217 590.054375 1182.00716 620.94125 1127.38651 620.94125L1063.25418 620.94125 1063.25418 710 1017 710 1017 455 1127.38651 455zM1170.04597 537.62C1170.04597 506 1150.70447 492.708125 1118.79736 492.708125L1063.25418 492.708125 1063.25418 583.233125 1118.79736 583.233125C1150.70447 583.233125 1170.04597 570.6425 1170.04597 537.62L1170.04597 537.62zM1316.01598 520C1370.01917 520 1406 558.43275 1406 617.675274 1406 676.917797 1370.08308 715 1316.01598 715 1261.94887 715 1226 676.917797 1226 617.675274 1226 558.43275 1262.01278 520 1316.01598 520zM1361.35949 610.154437C1361.35949 575.322765 1344.07208 554.831672 1316.01598 554.831672 1287.95988 554.831672 1270.64051 575.322765 1270.64051 610.154437L1270.64051 625.227978C1270.64051 660.05965 1287.92792 680.168328 1316.01598 680.168328 1344.10403 680.168328 1361.35949 660.05965 1361.35949 625.227978L1361.35949 610.154437zM1468.13443 655.563622C1470.99618 672.041599 1482.09338 682.093801 1505.36889 682.093801 1526.86376 682.093801 1539.07386 673.123165 1539.07386 657.726754 1539.07386 645.161501 1534.39968 637.65416 1514.33568 635.141109L1481.01228 631.196574C1443.04649 626.902121 1427.27511 608.929038 1427.27511 579.949429 1427.27511 544.448613 1457.387 519 1503.93802 519 1552.68303 519 1576.30831 547.311582 1578.47052 575.273246L1535.48078 575.273246C1533.31858 560.226754 1522.57114 550.906199 1503.23848 550.906199 1483.17448 550.906199 1470.26484 560.226754 1470.26484 574.573409 1470.26484 586.375204 1476.62427 593.214519 1498.21453 595.695759L1531.12457 599.640294C1567.65949 603.966558 1582 620.794454 1582 651.619086 1582 689.982871 1548.67659 714 1504.95552 714 1454.46166 714 1427.56128 689.251223 1424 655.563622L1468.13443 655.563622zM1631.40604 556.29875L1596 556.29875 1596 523.9775 1631.75534 523.9775 1631.75534 455 1675.06819 455 1675.06819 523.9775 1717.61895 523.9775 1717.61895 556.29875 1675.06819 556.29875 1675.06819 651.92375C1675.06819 668.785625 1683.64185 675.606875 1700.09058 675.606875L1718 675.606875 1718 710 1692.59656 710C1651.31598 710 1631.40604 691.32125 1631.40604 654.696875L1631.40604 556.29875z"></path>
    </g>
  </g>
</svg>
